<?xml version="1.0" encoding="utf-8"?>
<!-- Generator: Adobe Illustrator 23.0.1, SVG Export Plug-In . SVG Version: 6.00 Build 0)  -->
<svg version="1.1" id="Layer_1" xmlns="http://www.w3.org/2000/svg" xmlns:xlink="http://www.w3.org/1999/xlink" x="0px" y="0px"
	 viewBox="0 0 432 288" style="enable-background:new 0 0 432 288;" xml:space="preserve">
<style type="text/css">
	.st0{fill:url(#SVGID_1_);}
	.st1{fill:url(#SVGID_2_);}
	.st2{fill:url(#SVGID_3_);}
	.st3{fill:url(#SVGID_4_);}
	.st4{fill:url(#SVGID_5_);}
</style>
<linearGradient id="SVGID_1_" gradientUnits="userSpaceOnUse" x1="0.2" y1="144.2" x2="432.2" y2="144.2">
	<stop  offset="0" style="stop-color:#2571DF"/>
	<stop  offset="1" style="stop-color:#6299E8"/>
</linearGradient>
<path class="st0" d="M432.2,288.2H0.2V0.2c63.9,23.1,116.7,32.2,152.4,36.2c50.4,5.7,80.9,3,213.6,7.2c28.4,0.9,51.5,1.8,66,2.4
	C432.2,126.8,432.2,207.5,432.2,288.2z"/>
<linearGradient id="SVGID_2_" gradientUnits="userSpaceOnUse" x1="16.52" y1="51.32" x2="58.76" y2="51.32">
	<stop  offset="0" style="stop-color:#2571DF"/>
	<stop  offset="1" style="stop-color:#6299E8"/>
</linearGradient>
<rect x="16.5" y="35.7" class="st1" width="42.2" height="31.2"/>
<linearGradient id="SVGID_3_" gradientUnits="userSpaceOnUse" x1="92.7127" y1="119.5" x2="179.3152" y2="119.5" gradientTransform="matrix(-7.858848e-02 -0.4508 0.6045 -0.1054 49.3795 142.0598)">
	<stop  offset="0" style="stop-color:#2571DF"/>
	<stop  offset="1" style="stop-color:#6299E8"/>
</linearGradient>
<polygon class="st2" points="88.3,72.1 137,83.7 130.2,44.7 "/>
<linearGradient id="SVGID_4_" gradientUnits="userSpaceOnUse" x1="-144.5068" y1="-27.2703" x2="-57.9042" y2="-27.2703" gradientTransform="matrix(0.5714 -7.689206e-02 8.089305e-02 0.6011 92.7668 269.4041)">
	<stop  offset="0" style="stop-color:#2571DF"/>
	<stop  offset="1" style="stop-color:#6299E8"/>
</linearGradient>
<polygon class="st3" points="29.7,238.2 11,286.7 60.5,280 "/>
<linearGradient id="SVGID_5_" gradientUnits="userSpaceOnUse" x1="100.1559" y1="269.6105" x2="126.2089" y2="266.1047">
	<stop  offset="0" style="stop-color:#2571DF"/>
	<stop  offset="1" style="stop-color:#6299E8"/>
</linearGradient>
<circle class="st4" cx="113.2" cy="267.9" r="13.1"/>
</svg>
