<?xml version="1.0" encoding="utf-8"?>
<!-- Generator: Adobe Illustrator 23.0.1, SVG Export Plug-In . SVG Version: 6.00 Build 0)  -->
<svg version="1.1" id="Layer_1" xmlns="http://www.w3.org/2000/svg" xmlns:xlink="http://www.w3.org/1999/xlink" x="0px" y="0px"
	 viewBox="0 0 1000 400" style="enable-background:new 0 0 1000 400;" xml:space="preserve">
<style type="text/css">
	.st0{fill:#19459D;}
	.st1{fill:#3057A7;}
</style>
<rect y="71" class="st0" width="1000" height="329"/>
<path class="st1" d="M1000,257c-76.5-22.1-187.6-46-322-45c-132,0.9-194,25.1-341,33c-82.4,4.4-197.3,4-337-18C0,156.3,0,85.7,0,15
	C39.5,8.8,104.4,0.5,185,0c112-0.7,155.2,14.2,271,16c97.5,1.5,111.7-8.4,219-12.9c75.3-3.2,186.5-3.3,325,13.9
	C1000,97,1000,177,1000,257z"/>
</svg>
