<?xml version="1.0" encoding="utf-8"?>
<!-- Generator: Adobe Illustrator 23.0.1, SVG Export Plug-In . SVG Version: 6.00 Build 0)  -->
<svg version="1.1" id="Layer_1" xmlns="http://www.w3.org/2000/svg" xmlns:xlink="http://www.w3.org/1999/xlink" x="0px" y="0px"
	 viewBox="0 0 2278 2000" style="enable-background:new 0 0 2278 2000;" xml:space="preserve">
<style type="text/css">
	.st0{fill:#FFFFFF;}
	.st1{fill:#CAE1F9;}
	.st2{opacity:0.2;fill:#9BC1F9;enable-background:new    ;}
	.st3{fill:#3C8F7C;}
	.st4{fill:#50BFA5;}
	.st5{fill:#96C5EA;}
	.st6{fill:#256653;}
	.st7{fill:#327F6B;}
	.st8{fill:#004FFF;}
	.st9{fill:#3593D3;}
	.st10{fill:#FCF5EB;}
	.st11{fill:#B75742;}
	.st12{fill:#184655;}
	.st13{fill:#12353D;}
	.st14{fill:#F7A491;}
	.st15{fill:#88BFE5;}
	.st16{fill:#F47458;}
	.st17{fill:#E25A44;}
	.st18{fill:#355389;}
	.st19{fill:#466EB6;}
	.st20{fill:#F7CC7F;}
	.st21{fill:#F79C8D;}
	.st22{fill:#FF2E2E;}
	.st23{fill:#F48C7F;}
	.st24{fill:#F43131;}
	.st25{fill:#3CB4C5;}
	.st26{fill:#F8A492;}
	.st27{fill:#FE875E;}
	.st28{fill:#13375B;}
	.st29{fill:#FF2C2C;}
	.st30{fill:#0E2E35;}
	.st31{fill:#70B5E5;}
</style>
<rect x="3.4" y="3.4" class="st0" width="2278" height="2000"/>
<path class="st1" d="M969.2,687.7c-15.2-10.1-30.7-19.6-45.7-30c-2.7-1.9-5.2-6.8-4.9-10c1.8-21,4.8-41.9,6.5-63
	c0.5-6.1,1.9-9.3,7.7-11.7c20.6-8.2,41-17,61.5-25.6c3.3-1.4,6.6-2.9,12.3-5.4c-10-31.4-19.9-62.5-30.1-94.4
	c-26.4,5.4-50.5,10-74.3,15.5c-8.4,1.9-13,1-18.5-6.8c-11.2-15.9-24.6-30.2-36.6-45.5c-1.8-2.3-2.7-7.1-1.6-9.9
	c8-21.1,15.9-42.2,25.2-62.7c4.4-9.8,2.2-15.1-6.7-19.6c-3.4-1.7-6.2-4.7-9.2-7.1c-15.2-8.1-30.5-16.1-45.7-24.2
	c-1.9-0.4-3.9-0.4-5.7-1.1c-18.6-7.5-15-7.3-25.4,8.2c-12.7,18.9-25.1,38.1-35.9,54.6c-28.4-2.5-54.9-4.8-82.4-7.1
	c-10.5-25.1-21.6-51.3-32.6-77.7c-33.4,4.7-64.1,15.5-94.1,30c5.4,26,10.6,51.3,15.9,76.5c1,4.5,0.7,7.3-3.7,10.6
	c-17.3,13.2-34.4,26.8-50.8,41.1c-4.7,4.1-7.8,4.2-12.9,2.1c-21.1-8.7-42.5-17-63.6-25.6c-5.3-2.1-8.7-2-12.5,3.2
	c-17.3,23.1-29,49-38.5,75.9c-1.9,5.3,0.7,7.6,4.7,10.2c18.7,12,37.1,24.4,55.9,36.3c5.4,3.4,7.1,6.4,6,13.3
	c-3.6,24.1-5.7,48.4-8.6,74.5c-22.8,9.6-48.7,20.4-74.6,31.3c4.7,34,14,65.5,29.3,95.5c28.3-6,55.8-11.9,80.7-17.2
	c15.7,17.8,29.8,34.8,45,50.8c5.7,6,6.8,10.6,3.5,18.1c-8.7,20-16.7,40.4-24.8,60.8c-1.6,4-4.8,8.7,1.5,12
	c25.5,13.3,51.1,26.6,76.6,39.8c5.4,2.8,8.8,1,12.1-4.1c12.1-19,24.9-37.6,36.7-56.8c4.5-7.4,9.4-7.7,17.1-6.8
	c19,2.4,38.1,4.5,57.1,4.8c8.2,0.1,11.3,2.3,14.1,9.5c9.1,23.4,19.1,46.5,28.5,69.2c20.4-0.1,75.8-17.9,95.7-30.5
	c-5.4-25-10.6-50.3-16.5-75.4c-1.5-6.3,0.4-9,5.2-12.8c15.5-12.3,30.1-25.8,45.4-38.3c2.6-2.1,7.8-3.3,10.8-2.1
	c18.9,7.2,37.5,15.1,56.1,23c10.4,4.4,14.6,6.2,18.6,3.5l42.9-81.1C986,698.9,981.5,695.9,969.2,687.7z M807.5,660.4
	c-38.4,72.5-128.2,100.2-200.8,61.8l0,0c-72.5-38.4-100.2-128.3-61.8-200.8l0,0c38.4-72.5,128.3-100.2,200.8-61.8l0,0
	C818.2,498,845.9,587.9,807.5,660.4L807.5,660.4z"/>
<path class="st2" d="M1577.8,584.1c-5.6-3.7-11.3-7.2-16.8-11c-1-0.7-1.9-2.5-1.8-3.7c0.7-7.7,1.8-15.4,2.4-23.1
	c0.2-2.2,0.7-3.4,2.8-4.3c7.6-3,15.1-6.2,22.6-9.4c1.2-0.5,2.4-1.1,4.5-2c-3.7-11.5-7.3-23-11-34.7c-9.7,2-18.5,3.7-27.3,5.7
	c-3.1,0.7-4.8,0.4-6.8-2.5c-4.1-5.8-9-11.1-13.4-16.7c-0.7-0.9-1-2.6-0.6-3.6c2.9-7.7,5.8-15.5,9.2-23c1.6-3.6,0.8-5.5-2.5-7.2
	c-1.2-0.6-2.3-1.7-3.4-2.6c-5.6-3-11.2-5.9-16.8-8.9c-0.7-0.1-1.4-0.2-2.1-0.4c-6.8-2.7-5.5-2.7-9.3,3c-4.7,6.9-9.2,14-13.2,20
	c-10.4-0.9-20.2-1.7-30.2-2.6c-3.9-9.2-7.9-18.8-12-28.5c-12.3,1.7-23.5,5.7-34.5,11c2,9.5,3.9,18.8,5.9,28.1
	c0.4,1.7,0.3,2.7-1.4,3.9c-6.4,4.8-12.6,9.8-18.6,15.1c-1.7,1.5-2.9,1.5-4.7,0.8c-7.8-3.2-15.6-6.2-23.4-9.4
	c-1.9-0.8-3.2-0.7-4.6,1.2c-6.3,8.5-10.6,18-14.1,27.9c-0.7,2,0.3,2.8,1.7,3.8c6.9,4.4,13.6,9,20.5,13.3c2,1.3,2.6,2.3,2.2,4.9
	c-1.3,8.8-2.1,17.8-3.2,27.4c-8.4,3.5-17.9,7.5-27.4,11.5c1.7,12.5,5.1,24,10.8,35c10.4-2.2,20.5-4.4,29.6-6.3
	c5.8,6.5,11,12.8,16.5,18.6c2.1,2.2,2.5,3.9,1.3,6.7c-3.2,7.4-6.1,14.8-9.1,22.3c-0.6,1.5-1.7,3.2,0.6,4.4
	c9.4,4.9,18.7,9.7,28.1,14.6c2,1,3.2,0.4,4.4-1.5c4.4-7,9.2-13.8,13.5-20.8c1.7-2.7,3.5-2.8,6.3-2.5c7,0.9,14,1.6,21,1.8
	c3,0,4.1,0.8,5.2,3.5c3.3,8.6,7,17.1,10.5,25.4c7.5-0.1,27.8-6.6,35.1-11.2c-2-9.2-3.9-18.5-6.1-27.7c-0.5-2.3,0.1-3.3,1.9-4.7
	c5.7-4.5,11-9.5,16.7-14c0.9-0.8,2.9-1.2,4-0.8c6.9,2.7,13.8,5.6,20.6,8.5c3.8,1.6,5.4,2.3,6.8,1.3l15.8-29.8
	C1584,588.2,1582.3,587.1,1577.8,584.1z M1518.4,574.1c-14.1,26.6-47.1,36.8-73.7,22.7l0,0c-26.6-14.1-36.8-47.1-22.7-73.7l0,0
	c14.1-26.6,47.1-36.8,73.7-22.7l0,0C1522.3,514.5,1532.5,547.5,1518.4,574.1L1518.4,574.1z"/>
<g>
	<g>
		<path class="st3" d="M613.4,1616.1c0,0-284.9-140.5-333.9-213.8s23-77.4,23-77.4s-127.2-123.7-109.3-175.7
			c17.9-52.1,83.8-4.3,83.8-4.3s-81.8-182-43.2-200.3c71.8-34.1,172.5,161.7,172.5,161.7s-21.6-85.1,27.8-82.3
			c74.6,4.2,71.5,196.6,71.5,196.6s8.4-73.8,53.4-49.8C639.6,1213.8,613.4,1616.1,613.4,1616.1z"/>
	</g>
	<path class="st4" d="M575.2,1141c-35.1-19.5-70.1,37.4-70.1,37.4s3.5-150.3-71-154.5c-49.4-2.8-27.8,82.3-27.8,82.3
		S305.6,910.4,233.7,944.5l380,668.4C616.4,1566.3,644.7,1179.6,575.2,1141z"/>
</g>
<g>
	<g>
		<path class="st3" d="M606,1617.8c0,0-233,28.9-293.4,3.1c-60.3-25.8-17.1-57.7-17.1-57.7S166,1537.8,156,1498.1
			c-10-39.7,49.8-36.6,49.8-36.6S81.5,1381.1,98.1,1354c30.9-50.4,173.3,30.8,173.3,30.8s-48.1-44.3-16.1-62.6
			c48.2-27.7,124.5,93.6,124.5,93.6s-4.7-29.9,33-33.2C480.6,1376.6,606,1617.8,606,1617.8z"/>
	</g>
	<path class="st4" d="M414.4,1360.8c-37.8,3.3-34.6,54.9-34.6,54.9s-77.6-143.7-125.8-116c-32,18.4,5.9,78.7,5.9,78.7
		s-130.8-74.8-161.7-24.4l508.6,262.5C589.4,1586.3,477.7,1355.2,414.4,1360.8z"/>
</g>
<path class="st4" d="M1946,1277.5l12.5-30.3c9.7-22.2,34.6-32.9,55.5-23.7l0,0c52.8,23,75.7,87.2,51.3,143.2l-17.9,41
	c-7.8,18-5.1,37.7,5.5,51.6c9.6,12.6,11.2,30.2,4.5,45.5l-9.4,21.6c-10.2,23.4-30.1,40.7-53.7,47.9c-13.8,4.2-26,14.5-32.4,29.3
	l-13.4,30.6c-14.8,33.8-52.6,50-84.4,36.1l-18.2-7.9c-31.8-13.9-45.7-52.6-30.9-86.4l0,0c23.9-40.4,22-70.6,13.5-91.1
	c-12.4-30.1-12.3-64.7,1.2-95.6l1.9-4.3c14.2-32.5,41.6-56.8,74.3-67.2C1920.4,1313.1,1935.4,1301.8,1946,1277.5z"/>
<path class="st5" d="M1121.5,1875c-33.8-43.9-219.3-278.8-340.3-318c-133.5-43.2-7.7,128.4-7.7,128.4s-236.8-259-323.7-235.6
	c-79.7,21.4,0,181.9,0,181.9s-89.7-88.9-198.5-88.9c-105.9,0,74,315.2,83.7,332.1L1121.5,1875L1121.5,1875z"/>
<g>
	<path class="st6" d="M2120.6,934.4c0,0-34.1,44.1-54.2,61.4c-20.1,17.3-39.3,33.9-64.9,88.9s-24.9,61.3-31.7,75.5
		c-6.8,14.2-42.6,69.7-45.3,80.7c-2.7,11.1-61.1,64.1-79.2,91.1s-47.7,64.6-51.6,86.4l5.3-0.1c0,0,15.7-49.2,62.1-91.9
		c46.3-42.7,43.6-53.4,88.9-70.3s87.3-83,87.3-83s58.1-68.9,65.7-109.9C2110.5,1022.2,2129.7,988,2120.6,934.4z"/>
	<path class="st6" d="M2085.2,846.2c0,0-8.9,32.1-23.8,48.9c-14.9,16.8-26.7,26.4-33.4,46.8c-6.7,20.4-25.8,72.6-61.1,92
		c-35.3,19.4-57.3,97.2-85,115.8s-34.6,35-40,76.7s-4.6,101.5-53.9,167.7l-3-20c0,0,37.1-55.3,39.8-92.1s-4.2-95,8.9-119.1
		s-12.2-35.3,12.8-70.5s21.6-50.3,51-78.9c0,0,2.6-1.1,14.9-28.2c12.3-27.2,70.3-68.7,95.6-81.6
		C2033.4,890.7,2070.5,869.3,2085.2,846.2z"/>
	<path class="st3" d="M1961.7,986.6c0,0-35.4,37.5-42.3,65.3c-6.8,27.8-9.1,51.2-30.8,86.5c-21.7,35.2-1.9,65.3-14.1,84.7
		c-12.2,19.4-18.6,44.2-22.8,63.2c-4.2,19-48,74.9-59.8,105.6s-6.2,32.1-6.2,32.1s14.6-40.8,24.5-53.1s41.5-55.3,50.6-72.7
		c9.1-17.4,24.8-26.2,43.2-54.9c18.4-28.7,40.5-51.4,49.6-96.1C1962.8,1102.6,1991.6,1059.8,1961.7,986.6z"/>
	<path class="st3" d="M1809.4,1398.8c0,0,24.6-52.3,75.7-46.2s78,22.7,122.6-9.3c44.5-32,79.8-91.1,93.6-99.4
		c0,0-15.6-13.2-51.3,7.4c-35.8,20.6-61.3,36.7-82,48.7s-32.1-1.6-52.5,4.8c-17.1,5.3-42.5,26.4-54.2,37.7c-3.8,3.7-8,6.9-12.6,9.5
		c-4.2,2.4-9.2,5.3-12.5,7.6c-6.6,4.5-30.5,38.4-30.5,38.4L1809.4,1398.8z"/>
	<path class="st3" d="M1794.1,1385.1c0,0,33.2-63.2,29.1-98.9c-4.1-35.7-35.2-68.6-28.9-88.9c6.3-20.3,42.9-70.8,33.3-116.9
		c0,0-16,35.4-25.1,42s-66.4,28.4-67.9,74.4c-1.4,46,44.3,67.5,53.2,83.2c8.9,15.7,24.9,19.4,23,28s-6.1,40.7-18.6,70.3
		L1794.1,1385.1z"/>
	<path class="st7" d="M1823.7,1344.5l41.2-65.3c0,0,27.8-53.8,47.2-99.4c19.5-45.7,49.6-193.1,49.6-193.1s-35.4,37.5-42.3,65.3
		c-6.8,27.8-9.1,51.2-30.8,86.5c-21.7,35.2-1.9,65.3-14.1,84.7c-12.2,19.4-18.6,44.2-22.8,63.2c-4.2,19-48,74.9-59.8,105.6
		c-6.5,16.8-7.7,24.8-7.5,28.7C1787,1391.9,1823.7,1344.5,1823.7,1344.5z"/>
	<path class="st7" d="M1955,1330.4c-23-0.7-42.3-6.8-73,6.6c-30.6,13.4-50.8,30.5-50.8,30.5s-16.6,18.2-24,28.2
		c-1.1,1.5-1.7,2.4-1.7,2.4l3.9,0.7c0,0,24.6-52.3,75.7-46.2s78,22.7,122.6-9.3c44.5-32,79.8-91.1,93.6-99.4
		c0,0-44.2,20.4-73.3,40.8S1978,1331.1,1955,1330.4z"/>
	<path class="st7" d="M1802.5,1122.4c-9.1,6.6-66.4,28.4-67.9,74.4c-1.4,46,44.3,67.5,53.2,83.2c8.9,15.7,24.9,19.4,23,28
		s-6.1,40.7-18.6,70.3l0.8,2.9c5.4-11.5,13.3-29,17.7-42.6c7.2-22.2,5.7-32.4,2.7-52.5s-39.5-67.9-46.3-90.2
		c-6.8-22.3,34.1-47.4,45.1-61.5c11.1-14.1,15.4-54.1,15.4-54.1S1811.6,1115.8,1802.5,1122.4z"/>
</g>
<path class="st5" d="M1189.9,1875c33.8-43.9,219.3-278.8,340.3-318c133.5-43.2,7.7,128.4,7.7,128.4s236.8-259,323.7-235.6
	c79.7,21.4,0,181.9,0,181.9s89.7-88.9,198.5-88.9c105.9,0-74,315.2-83.7,332.1L1189.9,1875L1189.9,1875z"/>
<g>
	<g>
		<path class="st6" d="M594.8,1873.7c-108.1-147-239.6-282.9-395.9-401.1c-1.6-1.2-3.7,1.5-2.1,2.7
			c148.2,114,279.4,248.5,389.8,400.6L594.8,1873.7z"/>
	</g>
	<path class="st6" d="M286.1,1604.2c3.6-2.6,13-12.3,25.5-15.3c11.8-4,26.8-1.3,26.3-1c0.3,0.7-9.9-10.8-25.7-14.2
		c-15.2-4.5-36.2-0.7-43.1,5.3c-15.5,10.5-16.8,28.4-9.1,31.7C267.6,1614.2,277.9,1609.4,286.1,1604.2z"/>
	<path class="st6" d="M222.4,1548.1c3.6-2.6,13-12.3,25.5-15.3c11.8-4,26.8-1.3,26.3-1c0.3,0.7-9.9-10.8-25.7-14.2
		c-15.2-4.5-36.2-0.7-43.1,5.3c-15.5,10.5-16.8,28.4-9.1,31.7C204,1558.1,214.2,1553.3,222.4,1548.1z"/>
	<path class="st6" d="M393.2,1579.3c-3.4,2.1-15.4,6.4-21,16c-6.4,8.7-6.3,22.7-5.9,22.4c0.7,0.6-9.7-12.9-10.4-28
		c-1.9-15,5.9-31.7,13.6-35.2c14-9.3,33.2-3.2,35.3,4.8C407.3,1567.3,400.2,1574.2,393.2,1579.3z"/>
	<g>
		<g>
			<path class="st6" d="M409.7,1378.8c96.8,151.1,167.4,319,207.8,497.4l6.6-1.8c-40.2-174.6-110.4-342.2-207-493.2
				c-22.5-35.1-46.7-76.7-88.7-90.4c-0.8-0.3-1.1,1-0.3,1.3C366.5,1306.6,388.7,1346,409.7,1378.8z"/>
		</g>
		<path class="st6" d="M400.9,1285.1c-2.5,3.7-12,13.2-14.8,25.8c-3.8,11.9-0.8,26.8-0.5,26.3c0.7,0.3-11-9.6-14.7-25.4
			c-4.8-15.2-1.4-36.2,4.5-43.1c10.2-15.7,28-17.3,31.5-9.7C410.5,1266.5,405.9,1276.8,400.9,1285.1z"/>
		<path class="st6" d="M377.7,1420c3.6-2.6,13-12.3,25.5-15.3c11.8-4,26.8-1.3,26.3-1c0.3,0.7-9.9-10.8-25.7-14.2
			c-15.2-4.5-36.2-0.7-43.1,5.3c-15.5,10.5-16.8,28.4-9.1,31.7C359.3,1430,369.5,1425.2,377.7,1420z"/>
		<path class="st6" d="M412.7,1479.1c3.6-2.6,13-12.3,25.5-15.3c11.8-4,26.8-1.3,26.3-1c0.3,0.7-9.9-10.8-25.7-14.2
			c-15.2-4.5-36.2-0.7-43.1,5.3c-15.5,10.5-16.8,28.4-9.1,31.7C394.2,1489.2,404.4,1484.3,412.7,1479.1z"/>
		<path class="st6" d="M449.8,1352c-3,3.2-14,11.2-18.7,23.1c-5.6,11.2-5,26.4-4.6,25.9c0.7,0.4-9.4-11.3-10.5-27.4
			c-2.3-15.7,4.3-36,11.2-41.9c12.6-13.9,30.4-12.7,32.7-4.6C462.2,1335.1,456,1344.6,449.8,1352z"/>
		<path class="st6" d="M501.1,1419.1c-4.3,2.3-19.4,6.5-27,17.8c-8.6,10.1-9.7,27.3-9.1,26.9c0.8,0.7-10.8-16.6-10.3-35.1
			c-1.1-18.5,9.9-38.3,19.6-41.9c18-10.2,40.9-1.1,42.8,8.9C519.3,1405.6,510.1,1413.4,501.1,1419.1z"/>
		<path class="st6" d="M555.2,1520.6c-4.6,1.5-20.2,3.1-29.6,13c-10.2,8.5-14.1,25.2-13.5,25c0.7,0.9-7.8-18.2-4.2-36.4
			c2.1-18.4,16.2-36.1,26.4-38c19.4-7,40.5,5.8,40.7,16C575.4,1510.4,565,1516.6,555.2,1520.6z"/>
		<path class="st6" d="M311.9,1308.9c2-1.7,7.1-7.8,14.4-10.2c6.8-2.9,15.8-2,15.5-1.7c0.2,0.4-6.3-6-15.8-7.3
			c-9.2-2-21.4,1.2-25.2,5c-8.7,6.9-8.7,17.5-4,19.2C301.4,1315.6,307.3,1312.3,311.9,1308.9z"/>
		<path class="st6" d="M331.3,1265.7c-0.1,2.6-1.8,10.4,0.7,17.6c1.9,7.2,8.1,13.7,8.1,13.3c0.5-0.1-8.6-1.3-15.4-8.1
			c-7.2-6.1-12.2-17.7-11.4-23.1c0.1-11.1,8.6-17.6,12.7-14.8C330.3,1253.3,331.2,1260,331.3,1265.7z"/>
	</g>
	<path class="st6" d="M176.6,1491c2-1.7,7.1-7.8,14.4-10.2c6.8-2.9,15.8-2,15.5-1.7c0.2,0.4-6.3-6-15.8-7.3c-9.2-2-21.4,1.2-25.2,5
		c-8.7,6.9-8.7,17.5-4,19.1C166.1,1497.7,171.9,1494.4,176.6,1491z"/>
	<path class="st6" d="M200,1447.4c-0.3,2.6-2.7,10.3-0.7,17.6c1.3,7.3,6.9,14.3,7,14c0.5,0-8.4-2-14.7-9.3
		c-6.7-6.7-10.7-18.6-9.5-23.9c1-11.1,10-16.8,13.9-13.8C199.9,1435,200.3,1441.7,200,1447.4z"/>
</g>
<g>
	<path class="st6" d="M220.8,1737.8c98.8,10.8,190.8,54.4,279.4,97c59.7,28.7,56.7,36.9,68.9,41.1c2,0.7,3.9-1.4,3-3.3
		c-4.7-9.3-17-15.5-25.5-20.9c-9.9-6.2-20.3-11.7-30.9-16.8c-22.5-10.9-45.7-20.8-68.7-30.8c-46.8-20.3-94.3-39.4-143.7-52.4
		c-27.1-7.1-54.6-12.2-82.5-14.7C220.3,1736.9,220.3,1737.7,220.8,1737.8L220.8,1737.8z"/>
</g>
<path class="st6" d="M301.4,1705.9c-0.6,4.1-4.9,15.8-2.3,27.4c1.5,11.5,9.9,22.8,10,22.2c0.7,0-13.1-3.7-22.4-15.5
	c-10-10.8-15.5-29.8-13.3-37.9c2.3-17.2,16.7-25.6,22.6-20.6C302.1,1686.4,302.3,1696.9,301.4,1705.9z"/>
<path class="st6" d="M388.4,1737c-0.6,4.1-4.9,15.8-2.3,27.4c1.5,11.5,9.9,22.8,10,22.2c0.7,0-13.1-3.7-22.4-15.5
	c-10-10.8-15.5-29.8-13.3-37.9c2.3-17.2,16.7-25.6,22.6-20.6C389.2,1717.6,389.3,1728.1,388.4,1737z"/>
<path class="st6" d="M476.9,1776.4c-0.6,4.1-4.9,15.8-2.3,27.4c1.5,11.5,9.9,22.8,10,22.2c0.7,0-13.1-3.7-22.4-15.5
	c-10-10.8-15.5-29.8-13.3-37.9c2.3-17.2,16.7-25.6,22.6-20.6C477.6,1757,477.8,1767.5,476.9,1776.4z"/>
<path class="st6" d="M275.4,1787.2c1.8-3.3,5.2-14.4,13.7-21.5c7.5-7.6,20-11.3,19.8-10.8c0.5,0.4-11.7-4.5-25.1-1
	c-13.4,2.4-28,13.3-30.9,20.6c-7.9,14-2,28.2,5.2,27.8C265.1,1801.9,271.1,1794.3,275.4,1787.2z"/>
<path class="st6" d="M365.9,1819.2c1.8-3.3,5.2-14.4,13.7-21.5c7.5-7.6,20-11.3,19.8-10.8c0.5,0.4-11.7-4.5-25.1-1
	c-13.4,2.4-28,13.3-30.9,20.6c-7.9,14-2,28.2,5.2,27.8C355.6,1834,361.6,1826.3,365.9,1819.2z"/>
<path class="st6" d="M206.5,1754.2c1.6-1.9,5.2-8.3,11.4-11.7c5.7-3.8,14.1-4.4,13.8-4.2c0.3,0.3-6.7-4.4-15.7-4
	c-8.7-0.2-19.3,4.7-22.1,8.8c-6.8,7.8-5,17.4-0.4,18.1C198,1762.1,202.8,1758.1,206.5,1754.2z"/>
<path class="st6" d="M216.9,1711.6c0.4,2.4,0.1,9.8,3.6,15.9c2.9,6.2,9.7,11.1,9.6,10.8c0.4-0.1-8,0.2-15.4-4.8
	c-7.6-4.4-14.1-14.1-14.3-19.1c-1.7-10.2,4.9-17.5,9.1-15.7C213.9,1700.5,215.8,1706.4,216.9,1711.6z"/>
<ellipse class="st8" cx="1154.1" cy="1176.3" rx="699.6" ry="699.6"/>
<ellipse class="st9" cx="1154.1" cy="1176.3" rx="638" ry="638"/>
<ellipse class="st10" cx="1154.1" cy="1176.3" rx="536.5" ry="536.5"/>
<ellipse transform="matrix(0.7071 -0.7071 0.7071 0.7071 -493.7678 1160.5731)" class="st9" cx="1154.1" cy="1176.3" rx="403.3" ry="403.3"/>
<ellipse class="st10" cx="1154.1" cy="1176.3" rx="286.4" ry="286.4"/>
<path class="st11" d="M1227.1,1176.3c0,40.3-32.7,73-73,73s-73-32.7-73-73s32.7-73,73-73S1227.1,1136,1227.1,1176.3z"/>
<g>
	<polygon class="st12" points="1602.4,813.9 1599.8,766.4 1760.5,640.8 1752.1,709.5 1594.7,832.6 	"/>
	<polygon class="st13" points="1614.3,829.9 1659.7,843.8 1820.3,718.2 1751.6,709.8 1594.3,832.9 	"/>
	<path class="st12" d="M1148.6,1182.4L1148.6,1182.4c3.7,4.7,10.4,5.5,15.1,1.8l452.5-353.9l-13.2-16.9l-452.5,353.9
		C1145.8,1171,1145,1177.7,1148.6,1182.4z"/>
</g>
<path class="st14" d="M1823.8,1313.8c0,4.5,1.7,8.2,3.8,8.2c2.1,0,3.8-3.7,3.8-8.2s-1.7-8.2-3.8-8.2
	C1825.4,1305.6,1823.8,1309.3,1823.8,1313.8z"/>
<path class="st14" d="M1788.1,1846.2c1-7.1,1.3-17.9,1.2-30.5h24.8c-2.6,17.7-4.6,31.6-4.6,31.6l0.6,5.6v16.6h-54.2
	c0,0,11.5-5.2,27.6-15.3C1784.7,1853.4,1787.4,1851,1788.1,1846.2z"/>
<path class="st14" d="M1893.7,1842.1l-7.2-20.6h18.8c1,13.2,1.3,22.2,1.3,22.2l4.8,13.6l4.9,16.1c0,0-16,4.1-24.4-0.5l0.9-16
	L1893.7,1842.1z"/>
<path class="st15" d="M1795.9,1393.7c6.5-8.9,33.5-34.8,36.5-34.8c8.7,0.2,37.4,0.2,43,3l-0.3,49.3c-0.9,4.1-20.7,68.6-19.6,82.7
	l-0.1,0.1c-16.6,16-42.7,14.8-57.9-2.8l0,0c0,0,0.1-19.5-2.3-37.4C1791.6,1426,1779.7,1415.9,1795.9,1393.7z"/>
<path class="st14" d="M1841.2,1331.2c0,0-0.8,18.2,0.9,25.1s3.8,7.4-10.2,9.5c-5.5,0.8-10.8,2.1-10.8,2.1s1.4-10.1,1.7-14.4
	c0.4-7-1.6-28.8-1.6-28.8L1841.2,1331.2z"/>
<path class="st16" d="M1830.5,1340.3c-2.9,1.6-5.6,2.5-8.1,2.9c-0.5-8.6-1.4-18.4-1.4-18.4l19.2,6.2
	C1838,1334.6,1834.9,1337.9,1830.5,1340.3z"/>
<path class="st17" d="M1892.8,1856.7c7.4,3.3,15.4,1.3,18.6,0.3l1.1,2.9l4.1,13.6c0,0-16.2,4-24.6-0.6L1892.8,1856.7z"/>
<path class="st17" d="M1810.6,1873.6h-56.3c-2.1-0.2-2.6-1.9-1.9-2.9c1.5-2.2,8.1-3.7,15.4-7.2c13,1.4,40.1-7.6,42.2-10.6
	C1811.2,1858.9,1811.8,1873.4,1810.6,1873.6z"/>
<path class="st18" d="M1814.9,1494.9l33,234.8l30.1,108.2h32.7c0,0-7.6-87.2-23.9-118.1c0,0-7.1-82.8-14.2-133.4
	c-1.1-7.6,4.2-27.2,2.8-32.3c-10.5-39-19.8-60.1-19.8-60.1L1814.9,1494.9z"/>
<path class="st19" d="M1835.3,1596.4l-7.6,90.2c0,0,7.8,51.5,2.4,85.7s-12.5,65.6-12.5,65.6h-30.1l-6-170.3c0,0-11.6-92.5-7.6-117.6
	s23.5-58.7,23.5-58.7l47.3,2.2c0,0,12.8,45.9,10.7,61.4C1853.9,1566.2,1835.3,1596.4,1835.3,1596.4z"/>
<path class="st12" d="M1881.8,1441.7c35.7-10.7,26.2-42.2,26-41c0.1-1,3.5-4.9,5.1-8.3c6.9-14.1-2.2-31.1-12.7-37
	c7-18,0-35.2-13-42.4c-6.6-3.6-12.2-8.8-16.6-14.7c-9.9-13.2-27.9-26.5-49.6-22.2c-21.4,5.5,7.3,17.9,4.4,38.5
	c-1.4,10.5,2.7,9,9.2,17.4c-9.3,16.3-3.9,43.8,10.3,56.2C1837.8,1417.6,1845.3,1452.6,1881.8,1441.7z"/>
<path class="st12" d="M1855.2,1297.7c4.2,17.4-18.6,30-36.7,30.5c-11.8,0.3-17.2-0.9-19.1-13.3c-3.1-20.1,5.2-32.3,16.8-37.4
	C1831.2,1271,1851.8,1283.3,1855.2,1297.7z"/>
<path class="st14" d="M1828.7,1286c0,0,8,2.7,12.2,10.7s2.1,33.7-15.5,42.2s-25.7-10.8-24.5-25
	C1802.2,1299.7,1807.3,1281.1,1828.7,1286z"/>
<path class="st0" d="M1817.6,1325.6l-12.5-0.2c0,0,0.2,4.8,5.7,5.1C1817.6,1330.8,1817.6,1325.6,1817.6,1325.6z"/>
<path class="st12" d="M1847.1,1316.2c2.6-13.3,1.6-23.4-7.9-28.2s-17.5-9.7-26-0.9l-1.9,1.1c0,0,15.9,4.4,16.8,12.9
	s9.4,18.5,8.1,22.7s-2.8,12.5-2.8,12.5l3.5-2.9C1837,1333.2,1844.5,1329.4,1847.1,1316.2z"/>
<path class="st14" d="M1830.7,1311.1c-1.3,3.7-0.3,7.4,2.2,8.2s5.7-1.4,7-5.1s0.3-7.4-2.2-8.2
	C1835.1,1305.1,1832,1307.4,1830.7,1311.1z"/>
<path class="st20" d="M489.9,1627.6h162.4l-38.8,246.6h16.8L848.9,483.5h-16.8l-3.3,21H666.1l3.3-21h-16.8L433.8,1874.2h16.8
	L489.9,1627.6z M768.5,888.3l-26.8,170.6H579.1l26.8-170.6L768.5,888.3L768.5,888.3z M608.1,874.1l26.8-170.6h162.7l-26.8,170.6
	H608.1z M739.4,1073.1l-26.8,170.6H550.1l26.8-170.6H739.4z M710.4,1258l-26.8,170.6H521.1l26.8-170.6H710.4z M826.6,518.7
	l-26.8,170.6H637.1l26.8-170.6L826.6,518.7L826.6,518.7z M492.1,1613.3l26.8-170.6h162.5l-26.8,170.6H492.1z"/>
<path class="st21" d="M1181.7,254c-0.2,0.6-1.5,4.9-3.6,11.3l21.7,4.4c0.2-3.6,0.4-6.5,0.7-8.7c1.8-15.1,8.9-19.2,12.5-27.5
	s17.8-13.7,16-16.5c-1.7-2.8-14.9,8.7-18.1,7.4c-3.2-1.2,11.3-18.5,9.5-20.8c-3.2-4.2-16.9,18.1-18.5,16.3s11.4-25.5,6.2-25.8
	c-5.2-0.3-11,25.6-13.7,24.4c-2.7-1.1,7.6-23.8,2.3-27.2c-2.8-1.8-12.8,40.4-17.2,42.8s-10.7-14.2-14.9-12.8
	C1160.5,222.7,1182.5,251.4,1181.7,254z"/>
<path class="st21" d="M979.5,164.3c-0.1,0.6-0.6,5.1-1.4,11.8l-21.6-5c1.3-3.3,2.3-6.1,2.9-8.2c4.6-14.5-0.2-21.1,0-30.2
	c0.1-9.1-10.6-19.8-7.8-21.7c2.8-1.9,10,14,13.4,14.2s-2.6-21.5-0.1-22.9c4.7-2.5,7.9,23.5,10.1,22.5c2.2-1,0.1-27.9,5-26
	s-0.5,27.8,2.4,27.9c3,0.1,2.9-24.8,9.1-25.7c3.3-0.5-5,42-2,46.1c3,4,15.6-8.5,18.9-5.5C1011.8,144.6,979.9,161.6,979.5,164.3z"/>
<path class="st22" d="M1202.5,263.2c0,0-25.9-6.2-26.1-4.1c-5.4,45.5-7.9,62-8.8,62.5c-3.1,1.6-44.7-36.4-52.1-39
	c-3.5-1.2-7.4-1-11.1-0.9c-8.8,0.3-10.6,0.3-10.6,0.3c-0.3,0-0.3,0-0.3,0v8.3c9.9,8.9,32.7,144.3,34.6,144.2
	c2.1-0.1,47.1,11.2,46.3,7.4c-0.1-0.6-30.5-25.4-39.1-61.3c-2.9-12-4.3-25-5.9-36.3c10,5,49,24.2,55.2,21.7
	C1203.8,358.1,1202.5,263.2,1202.5,263.2z"/>
<path class="st14" d="M1279.9,503.6c0,0,41.8,32.8,43.2,38.6c2,8.4,40.3-2.6,31.1-4.3c-2.1-0.4-8.9-2.1-9.5-2.4
	c-3-1.6-40.2-46.4-40.2-46.4L1279.9,503.6z"/>
<path class="st20" d="M1372.1,537.8l-26.7-2.2c0,0-7.6,6.3-22.3,6.6c0,0-2.3,6.7-1.2,14.5c0.2,1.4,0.4,5.4,1.8,5.3
	c4.9-0.3,18.1-3.6,33.1-6.6c0,0,20.1-4.3,31.8-11.2C1400.1,537.4,1372.1,537.8,1372.1,537.8z"/>
<path class="st18" d="M1092.5,421.4c0,0,30.6,5.1,64.5-2.8c39.2-9.2,82.5-17.6,95.2-10.3c10.2,5.9,74,102.4,74,102.4l-24.6,18
	l-70.3-78.7c0,0-89.7,33.1-109.8,29.4C1075.7,471.1,1075,434.5,1092.5,421.4z"/>
<path class="st14" d="M1188.2,568.3c0,0-1.9,50.6-3,59.1s21.5,34.2,18.6,25.3c-0.7-2.1-2.4-8.9-2.4-9.5c0-3.4,8.4-61.1,8.4-61.1
	L1188.2,568.3z"/>
<path class="st20" d="M1218.3,671.2l-16.7-27.2c0,0-9.2-3.7-16.4-16.5c0,0-7,1.1-13.4,5.8c-1.1,0.8-8.6,6.3-8.1,7.5
	c1.9,4.6,12.1,14.6,23.2,25.5c0,0,15.8,12.7,27.4,19.7C1226,692.9,1218.3,671.2,1218.3,671.2z"/>
<path class="st19" d="M1237.9,468.6c-10.7-14.3-97.1-27.8-97.1-27.8l-24.1-46.3l-53.3,32.9c0,0,5.3,42.4,9.3,53.7
	c5.3,15.1,41.1,15.9,63,15.6c20.1-0.2,56.9,3.9,56.9,3.9l-12.4,109.7c0,0,24.4,5.6,31.3,4.7C1212.2,614.8,1251.2,486.3,1237.9,468.6
	z"/>
<path class="st12" d="M1093.7,282.1l-30.1,1.7c0,0-0.7,0.2-0.9,0.3c-2.4,0.5-0.2,88.1,2,120.8s6.6,46.5,6.6,46.5s40.8-7.2,53.3-12.1
	c5.2-2,17.8-17.7,17.8-17.7s-12.8-17.3-19.3-45.3c-5-21.6-11.1-60-14.7-68C1100.3,289.8,1093.7,282.1,1093.7,282.1z"/>
<path class="st14" d="M1064.5,257.2l-0.9,26.5c0,0,19.5,33.5,29.5,28.9c8.4-3.9,0.9-29.4,0.9-29.4s-1.5-5.8-3.5-12.6
	c-1.4-4.7-2.6-9.8-2.5-13.5C1088.3,248,1064.5,257.2,1064.5,257.2z"/>
<path class="st16" d="M1088.1,257.1c0.2-9.1-23.6,0.1-23.6,0.1l-0.1,2.6c0.8,1.2,1.7,2.2,2.7,3c6.4,5.2,15.7,7.5,23.2,6.7
	C1089,265.1,1088,260.5,1088.1,257.1z"/>
<g>
	<path class="st20" d="M1087.8,196.6c0,0,9.9,15,10.7,27.5c0.7,12.6-1.9,21.2-1.9,21.2l-31.8-38L1087.8,196.6z"/>
	<path class="st23" d="M1101.7,221.6c0.4,4.4-1.3,8.2-3.8,8.5c-2.6,0.3-5-3.1-5.4-7.5s1.3-8.2,3.8-8.5
		C1098.8,213.8,1101.3,217.2,1101.7,221.6z"/>
	<path class="st14" d="M1054.4,213.4c-0.7-0.2-0.7,36.5,10,45.1c10.6,8.6,29.1,9.4,34.5,0.7c6-9.6,0.3-48.2-15.5-56.4
		C1067.5,194.6,1054.4,213.4,1054.4,213.4z"/>
	<path class="st20" d="M1051.7,190.7c-8.1,7.1-12,12.3-17.5,24.9c-6.7,15.5,6.6,31.6,17.9,38c11.2,6.4,12.2,14.1,12.2,14.1l0.5-4.8
		c0.2-1.7,0.2-3.2-0.1-4.4c-0.4-1.4-1-2.6-1.6-3.9c-1-2-4-9-5.2-10.9c-3.2-4.9-3.8-5.9-2.2-10.5c1.2-3.6-0.2-11.4,1.7-17.3l15.1-3.3
		c0,0,9.4-2.3,14.2-7.8C1100.2,189.2,1073.1,171.6,1051.7,190.7z"/>
	<path class="st14" d="M1059.1,237.3c1.9,4,1.5,8.2-0.9,9.2c-2.3,1.1-5.7-1.3-7.6-5.3s-1.5-8.2,0.9-9.2
		C1053.8,230.9,1057.2,233.3,1059.1,237.3z"/>
</g>
<path class="st24" d="M1063.7,283.7c0,0-29.8-1.4-37.5-4.9c-4.7-2.1-43-33-43-33l0.4-82.6l-26.9-2c0,0-14,91.3-9.1,101.3
	c5,10.3,61.1,52.8,72.3,71.3c6.5,10.6,19.9,155.1,22,156.4c14.5,7.5,59.3,15.1,58.3,10.5C1070.9,374.2,1063.7,283.7,1063.7,283.7z"
	/>
<path class="st0" d="M1076.4,246.9l17.4-5.5c0,0,1.7,6.7-5.9,9.4C1078.7,253.9,1076.4,246.9,1076.4,246.9z"/>
<path class="st20" d="M1816.8,568.4c2.2-0.4,3.4-3.3,2.2-5.2c-1.8-3-3.6-6-5.4-9c-4-6.6-4.3-6.8-4-7.5c0.8-1.8,4.2-1,5.4-0.6
	c2.7,0.9,5.2,2.6,8.1,2.9c5.6,0.7,9.7-3.6,7.2-9.1c-2.3-5-4.9-9.9-7.5-14.8c6,1.2,12.1,2.6,18.1,3.8c2.1,0.4,3.6-1.5,2.8-3.5
	c-1.9-4.4-7.6-17.5-9.5-21.8c-0.5-1.1-3.4-6.1-2.4-7c0.9-0.8,5,0.3,6,0.4c5.3,0.8,7.1,1,24.3,3.1c2,0.2,3.8-2.5,2.5-4.2
	c-12-16.7-9.9-18.3-14.2-20.6c-1-0.5-1.9,0.1-2,1.1c-0.4,2.5-0.3,3.1,4.2,11.1c1.2,2.1,2.4,4.1,3.7,6.1c-20.8-2.9-26-4.2-28.8,0.5
	c-2,3.2-1,4.1,9.8,28.9c-6.3-1.6-12.6-2.9-19-4.2c-2.4-0.5-4.2,1.8-3.1,4c8.3,17.9,9.3,18,9.6,19.8c0,0,1.1,0.3-0.5,0.2
	c-2.8-0.2-7.8-4.3-13.1-3.7c-4.7,0.5-9.1,4.3-8,9.4c0.6,2.9,1.7,4,7.2,13.8c-5.5,1.1-10.8,2.8-16.2,5.3c-2.4,1.1-3.8,2.1-5.2,4.3
	c-1.2,1.8,0.3,4.6,2.5,4.5C1797.6,576,1800.2,571.2,1816.8,568.4z"/>
<path class="st16" d="M1926,617.9c-0.8-5.2-1.1-10.3-1-15.8c0-1-0.2-3,0.9-3.6c2.5-1.6,6.3,2.8,16,4.9c4.2,0.9,12.8,3.2,14.7-2.5
	c0.9-2.9,0.3-6.6,0.3-9.6c0-2.3,0.1-4.6,0.1-6.8c15.8,4.4,14.9,5.4,18.4,3.8c0.9-0.4,1.4-1.8,0.9-2.7c-2-3.2-1.6-2.3-21.4-8.1
	c-1.8-0.5-4,0.7-4,2.8c0,3.1,0.8,17.1,0.7,18.8c-0.2-0.1-0.9,0-1.1,0c-6.6-0.2-12.1-2.6-18.1-5.1c-4.9-2-11.5-2.1-13.1,4.2
	c-0.8,3.4-0.5,10.4,0,15.8c-9.6-3.1-19.2-6.2-28.8-9.2c-1.9-0.6-4.6,0.8-4.4,3.1c0.4,6.3,0.6,12.5,0.8,18.8
	c-5.6-1.9-11-4.6-15.8-8.1c-3.6-2.6-8.1,2.4,1.3,8.3c5.2,3.5,10.8,6,16.9,7.6c2,0.5,4.4-0.8,4.4-3.1c0-6.2-0.2-12.4-0.6-18.6
	c9.6,2.9,19.2,5.8,28.8,8.7C1924.4,622.2,1926.4,620.2,1926,617.9z"/>
<path class="st25" d="M1959.2,743.5c0,1.9,1.3,3.1,3.1,3.4c8.8,1.6,17.5,2.4,26.4,0.9c4.6-0.8,3-7.6-1.5-7.1
	c-7.1,0.8-14.3,1.2-21.5,0.3c0.2-5.3,0.9-10.5,2.2-15.6c0.5-1.9-0.8-4.6-3.1-4.5c-5.7,0.2-27.2,1.4-27.4,1.6c0,0,0.1-0.2,0-0.6
	c-0.4-2.3,1.3-10.1,1.1-13.6c-0.2-4-5.5-5.4-8.7-5.7c-6.5-0.6-13.7,4.1-20.1,1.5c-6.1-2.4,0.8-12-4.2-19.5c-3.8-5.8-10.3-4-20.6-2
	c-2.5,0.5-5,1-6.3,3.5c-0.3,0.6-0.4,1.5,0.2,2c3.1,2.9,6.8,1.6,16.2,0c1.2-0.2,3.2-0.9,4.3,0c3.5,2.9-1.6,11,2.6,17.9
	c3.3,5.3,9.8,6.3,15.4,5.6c4.4-0.5,9.7-3.1,14.2-1.5c-0.2,3.8-0.6,7.6-0.5,11.4c0.1,4.1,2.2,7,6.3,7.3c4.6,0.4,9.4-0.3,14-0.5
	c3.1-0.1,6.2-0.3,9.3-0.4C1959.5,733,1959.1,738.2,1959.2,743.5z"/>
<path class="st25" d="M1705.8,503.2c-24.6-20.2-37.1-2-30.1,6.4c3,3.6,8.4,3.9,11.1-0.2c1.2-1.9-0.6-4.9-2.9-4.2
	c-1.9,0.6-2.4-1.6-0.3-2.4c2.7-1.1,6.1,0.9,8.4,2.1c5.5,2.9,12.7,6.6,13.6,13.5c1.4,10.3-9.1,21.2-24.6,15.2
	c-22.4-8.7-21.3-45.3,2.4-51.4c12.9-3.3,26.8,2.2,34.8,12.8c1.6,2.1,4.3-0.4,3.5-2.4c-6.3-15.8-26.5-21.8-41.8-16.5
	c-15.7,5.5-23.5,22-21.2,38c2.5,16.8,16.8,30.7,34.3,28.9C1712.3,541,1723,517.3,1705.8,503.2z"/>
<path class="st3" d="M1948.1,799.4c-4-2.8-12.3-4.5-15,0.9c-1.3,2.5-0.6,5.7,2.4,6.6c2.9,0.9,5.6-0.6,7.8,2.1c1.9,2.3,0.8,5.6-1,7.6
	c-5.3,6.3-16.7,4.3-23,0.9c-10.1-5.5-11.9-20-1-26.9c3.4-2.2,7.4-2.6,11.2-3.5c2.1-0.5,3.2-3.9,0.9-5c-8.6-4.4-19.3,1.2-24.4,8.6
	c-5.4,7.7-5.2,18.7-0.2,26.6c5.6,8.8,16.8,13.2,26.9,13.1C1953.8,830.1,1961.1,808.4,1948.1,799.4z"/>
<g>
	<g>
		<path class="st26" d="M1533.1,1447.7c-0.6,2.2-1,3-1.8,4.4c-5.3,9.6-17.5,23.3-17.5,23.3l-9.5-21.4c0,0,1.5-6.7,4.2-16.3
			C1517.7,1440.2,1526.4,1441.6,1533.1,1447.7z"/>
		<path class="st19" d="M1478.8,1429.1c0,0,52.9,22.8,54.6,22.3c1.1-0.3,21.7-34.7,21.9-67.1c0.1-15-15.4-33-32.8-29.4
			c-8.7,1.8-8.6,4.2-21.5,23C1488.1,1396.7,1478.8,1429.1,1478.8,1429.1z"/>
		<path class="st14" d="M1433.7,1837.2l1.3,20.8c0.5,2.6,2.3,9.1,2.3,11.5c0,9-42.7-7.6-33.2-11.6c0.9-0.4,5.4-3.1,5.7-6.2
			c0.4-4.7,1.6-14.3,1.6-14.3L1433.7,1837.2z"/>
		<path class="st3" d="M1404.2,1857.9c0,0,10,2.8,15.2,3.4s11.9-5.1,15.6-3.5c4,1.7,3.8,17.2,3.8,17.2s-53.8,4.4-68.9-0.2
			C1363.8,1873,1383.7,1864.3,1404.2,1857.9z"/>
		<path class="st14" d="M1521.1,1837.2l1.3,20.8c0.5,2.6,2.3,9.1,2.3,11.5c0,9-42.7-7.6-33.2-11.6c0.9-0.4,6.8-5.1,7-8.2
			c0.4-4.7,0.2-12.2,0.2-12.2L1521.1,1837.2z"/>
		<path class="st3" d="M1491.6,1857.9c0,0,10,2.8,15.2,3.4s11.9-5.1,15.6-3.5c4,1.7,4.2,17.2,4.2,17.2s-54.1,5.1-69.3-0.2
			C1451.3,1872.8,1471.1,1864.3,1491.6,1857.9z"/>
		<g>
			<path class="st14" d="M1517.2,1321.1l4.8,30.6c0,0-18.5,14.8-29.2,11.7c-9-2.6-2.8-14.4-2.8-14.4s4.8-16.4,3.3-24.9
				C1491.8,1315.5,1517.2,1321.1,1517.2,1321.1z"/>
			<path class="st27" d="M1513.7,1330.3c-4.6,2.2-13.8,5.2-20.9,5.9c0.7-4.3,1.1-8.8,0.5-12.2c-0.7-4,4.4-4.9,10-4.8
				c7.4,0.6,13.9,1.8,13.9,1.8l0.9,5.9C1516.7,1328.4,1515.2,1329.6,1513.7,1330.3z"/>
			<path class="st14" d="M1540.5,1285.7c0.8,0-7.3,34.2-19.8,40.1s-31.1,2.8-34.6-6.4c-3.9-10.2,10.2-45.1,27.8-49.6
				S1540.5,1285.7,1540.5,1285.7z"/>
			<path class="st28" d="M1526,1254.3c10,5.7,14.5,14.3,16.1,17.8c4.7,2.2,10.3,7,13.1,20c3.3,15.9-8.5,28.2-21.1,31.9
				c-12.6,3.7-14.5,12-14.5,12l-1.4-9c0,0,2.8-7.8,7-11.7c4.2-3.9-2-9.6-2.5-14.2c-0.4-3.6,2.2-10.5,1.6-16.4c0,0-7-10.6-13.9-13.2
				C1498.5,1266.8,1513.2,1246.9,1526,1254.3z"/>
			<path class="st14" d="M1520.7,1306.9c-1.6,4-1,7.9,1.5,8.8s5.8-1.6,7.4-5.6s1-7.9-1.5-8.8
				C1525.7,1300.4,1522.4,1302.9,1520.7,1306.9z"/>
		</g>
		<path class="st26" d="M1474.3,1460l-72.6-11.8c0,0,8.3-20.8,11.2-20.8c3,0,54.9,22.7,54.9,22.7l4.1,8.3L1474.3,1460z"/>
		<path class="st12" d="M1511.4,1509.8c0,0,7.2,35,4.3,61.6s-3.2,120.9-3.2,120.9l11.3,150.9l-26.7,0.6c0,0-31.7-150.8-31.1-147
			c0.6,3.9-10.6-106.2-10.6-106.2l37.8-84.1L1511.4,1509.8z"/>
		<path class="st28" d="M1504.4,1508.1c0,0,4.7,31.5-1.2,45.4c-5.9,13.8-50.6,149.5-51.2,160.6s-15.5,133.4-15.5,133.4l-31.1-0.9
			l-6.7-136l14.1-170.9l13.7-43.2L1504.4,1508.1z"/>
		<path class="st14" d="M1522,1351.7c0,0-7.7,5-14.8,4.4c-7.1-0.6-17.3-7.2-17.3-7.2l1.4-4.8c0,0,18.5-2.7,19-2.4
			C1510.8,1342.1,1522,1351.7,1522,1351.7z"/>
		<path class="st26" d="M1440.3,1426.3c0,0-27.5,25.9-39.9,21.5s-17.5-19.6,12.7-41.7C1440.3,1386.3,1440.3,1426.3,1440.3,1426.3z"
			/>
		<path class="st4" d="M1421.7,1458.3c4.1-22.2,33.7-91.3,36-104c1.1-6.2,17.1-6.3,32.3-5.5c16,0.9,32,2.9,32,2.9s14.2,2.3,20.5,8.2
			c6.3,5.9,7.9,22.1-1.1,52.8c-7.1,24.3-15.9,37.6-20.2,55.3c-0.9,5.9-1.6,11.8-2.6,18.6c-1.6,26.4,0,61.4,0,61.4
			s-77.3,16-106.3-8.3C1412.3,1539.7,1417.5,1481.1,1421.7,1458.3z"/>
		<path class="st19" d="M1402,1410.6c0,0,30.3,25,32.1,25c1.1,0,43.3-31,53-56.5c5.4-14.1-5.9-29.8-18.8-29.8
			c-8.9,0-12.9,2.3-30.6,17.3S1402,1410.6,1402,1410.6z"/>
	</g>
	<path class="st0" d="M1488.3,1304.6l11.4,6.2c0,0-3,4.8-8.1,2.2C1485.4,1309.9,1488.3,1304.6,1488.3,1304.6z"/>
</g>
<path class="st14" d="M767,1438.1c-0.9-2.6,11.5-4.6,12.2-7.2s-15.7-2.8-16.3-5.1c-1.1-4.2,17.9-0.9,17.5-2.8
	c-0.4-2-19.8-6.3-17.7-9.7c2.1-3.4,19.7,6.6,20.2,4.4c0.5-2.3-17.2-7.8-16.9-12.8c0.2-2.7,29.1,13.3,32.4,11.9
	c3.4-1.5-3.6-14-0.9-15.9c2.7-1.9,10.3,25.5,12.2,26.4c1.8,0.9,40.9,23.2,54.8,26.7c1.7-4.7,21.6-33.5,23.1-37.8
	c7.8,5.5,15.8,6.3,23.8,11.4c-5.8,14.6-32.6,55.1-36.6,57c-12.4,5.6-60.2-34.1-69.7-40.8c-9.6-6.8-15-4.6-21.5-6.7
	C777.1,1434.8,767.9,1440.7,767,1438.1z"/>
<path class="st12" d="M1032.2,1332.4c-7.2-19.1-25.8-30.6-45.3-27c-6-9.6-15.9-16.8-26.8-19.1c-21.4-4.6-50.3,3.9-49.5,26.5
	c-8.3,15.2-8.6,36.9,4.1,48.5c-4.4,20.4,14.7,40.2,39.6,39.5c8.7,14.3,25.2,23.5,41.6,21.5c3.9-0.5,10-1.5,10.9-1.2
	c-1.3-0.2,26.4,21,49.8-11.6C1080.6,1376.1,1063.8,1335.9,1032.2,1332.4z"/>
<g>
	<path class="st14" d="M965.1,1516.2c0.7,0.3-9.4,13.3-19.2,22.5c-7.9,10-15.4,21.7-17.9,34.6c-3.9,19.5-0.7,116.1-4,123
		c-29.1,28.5-50.2,99.9-56.1,121.7c-1.2,4.2-3.5,8.1-6.7,11.1l0,0l1.3,24.6L877,1867c0,0-3.2-20.1,3.2-35c0,0,73.3-111,77.7-119.5
		c8.3-24.2,38.6-148,38.6-148l7-28.5C1003.3,1536.1,965.2,1516.2,965.1,1516.2z"/>
	<path class="st18" d="M845.2,1836.9c0,0,9.2,14.1,9.9,19.6c0.8,5.5,5.7,18,11.1,18.8c1.2,0.2,22.2,1.7,22.1-0.9
		c-0.1-2-7.7-4.9-11.2-7.3c-6.1-4.2-15.6-38.5-15.6-38.5S845.6,1832.6,845.2,1836.9z"/>
</g>
<path class="st21" d="M968.2,1365.4c0,0,30.7-55.2,38.1-66.9c7.5-11.7,26.9-58.3,27.6-60.2c0.7-1.8-13.4-23.9-10.2-24.6
	c3.1-0.8,6.6,11.6,10,10.1c3.4-1.5,13.2-31.3,15.1-29.8c3.6,2.8-5.3,18.5-3.4,19.5s7.7-17.3,11.4-16.8c3.7,0.5-7.1,16.8-6.1,18.2
	c1,1.4,12.3-13.9,14.4-10.6c1.1,1.8-10.4,13.3-8.2,14.4s12.4-6.4,13.5-4.2c1.1,2.2-9.4,5.1-12.6,10.9s-8.5,8.3-10.7,19.1
	c-2.2,10.8-5.6,49.7-17,69.1s-36.5,62.4-36.5,62.4L968.2,1365.4z"/>
<path class="st14" d="M1027.8,1559c0,0,47.2,101,47.5,118.7c0.3,15.2-8.3,100.6-5.9,171.7c0.1,2.6,3.3,6,8.1,8.1
	c2.7,1.2,15.5,7,15.5,7l1.8,4.6l-44.3-3.2l-0.6-12.1c0,0-17.6-106.4-15.8-136.4c0.3-4.7,2.6-33,2.6-33l-53.3-102.8l33.5-44
	L1027.8,1559z"/>
<path class="st16" d="M919.6,1680.3L919.6,1680.3L919.6,1680.3z"/>
<path class="st5" d="M987.1,1395.3c1.3-7.8,13.3-27.2,15.2-32c0,0-13.9-17.7-25.2-16.4c0,0-15.2,25.2-23.8,26s-39,2.2-44.3,5.4
	c-5.3,3.2-27.9,37.9-27.9,37.9s20.3,20.7,28.5,20.7c0,0,4.3-8.5,6.1-10.4c1.2,4,20.2,65.3,20.1,79.2l0.1,0.1
	c17.7,14.3,43.5,11,57.1-7.3l0,0c0,0-1.6-19.1-0.7-36.7C993.6,1434.2,999.2,1419.5,987.1,1395.3z"/>
<path class="st29" d="M1085.6,1632.4l-92.7-133.9c-5.7,2.3-11.1,4.3-17.2,5.5c-13.3,2.6-26.6,2.2-40.1,1.7c0,0.5,0,0.9-0.1,1.3
	c-1.5,11-16.2,28.1-19.2,61.6c-3.4,38-1.4,104.1-0.2,108.4C977.8,1669.6,1068.1,1650.8,1085.6,1632.4z"/>
<path class="st14" d="M937.6,1350.7c0,0,3.3,17.6,2.6,24.5s2.5,29.2,16.6,29.3c14.1,0.1,2.7-28.4,1.3-35.2
	c-1.3-6.8-1.6-27.8-1.6-27.8L937.6,1350.7z"/>
<path class="st16" d="M956.8,1352.1c-0.2-5.7-0.3-10.5-0.3-10.5l-18.9,9.2c0,0,0.7,3.6,1.3,8.2
	C947.2,1360.6,953.2,1357.4,956.8,1352.1z"/>
<path class="st14" d="M930.7,1302.2c0,0-7.3,4.2-9.9,13.3c-2.7,9.1,0.4,32.6,19.2,38.3c18.8,5.7,26.9-12.9,23.1-27.5
	C959.1,1311.8,950.7,1293.4,930.7,1302.2z"/>
<path class="st14" d="M965.3,1320.7c-0.4,3.9-2.4,6.9-4.6,6.7c-2.2-0.2-3.7-3.6-3.3-7.5s2.4-6.9,4.6-6.7
	C964.2,1313.4,965.7,1316.8,965.3,1320.7z"/>
<path class="st14" d="M926.2,1335.7c2.2,3.4,2.2,7.4,0,9s-5.8,0-8-3.4s-2.2-7.4,0-9C920.4,1330.8,924,1332.3,926.2,1335.7z"/>
<path class="st18" d="M1050.4,1874.4h55.9c2.1-0.2,2.6-1.9,1.9-2.9c-1.5-2.1-8-3.7-15.3-7.1c-12.9,1.3-40.9-7.5-42.9-10.4
	C1048.7,1859.9,1049.2,1874.1,1050.4,1874.4z"/>
<path class="st0" d="M940.3,1339.6l12-3.5c0,0,1.1,4.7-4.1,6.4C941.8,1344.6,940.3,1339.6,940.3,1339.6z"/>
<path class="st5" d="M635.6,1062.4c1.6,0.1,5.8,1.5,12.1,13.3c8,15.1,19.7,60.8,19.7,60.8l-34.9,13l-4.5-9.5l-7.4-73.4
	C620.6,1066.6,635.1,1062.4,635.6,1062.4z"/>
<path class="st5" d="M589.4,1055.9c10,0,34.7,2.9,46.1,6.6c0,0,8.4,72.4-7.6,127.4c-3.6,12.3,3,51,3,51l-103.4-1.4
	c0,0,12.3-93.6,7.6-108.7c-4.6-15.1-4.7-67.8-4.7-67.8s0.7-0.1,23.2-4C564.2,1057.1,578.8,1055.8,589.4,1055.9z"/>
<path class="st14" d="M577.4,1375.2c0,0,2.3,26.4,6.5,33.7c4.2,7.3-0.2,19.7-0.4,21.5c-0.2,1.7-8.9,4.1-22.6,2.7
	c-13.7-1.5-13.5-4.6-12.4-9.8c1.1-5.1,8.4-11.7,8.9-16.6c0.4-4.9-4.2-22.4-4.2-22.4L577.4,1375.2z"/>
<path class="st18" d="M619.3,1219.1c0,0,71.4-4,87.3,5.7c15.9,9.7-11.3,57-11.3,57s-49.7-2.3-147,3.3c-23,1.3-25-60.1-20.7-65.2
	C531.9,1214.9,619.3,1219.1,619.3,1219.1z"/>
<path class="st28" d="M559.1,1435.1c-14.1-1.5-12.4-8.5-11.2-13.7c0.7-3.3,4.8-7.2,7.2-10.9c1.3,1,3.3,2.8,9.5,4.6
	c6.4,1.9,15.1-1.8,20.7-4.2c2,7.4,2.1,16.8,1.9,18.2C586.9,1430.9,573.3,1436.6,559.1,1435.1z"/>
<path class="st19" d="M566.9,1270.2c2.9,21.6,17,129.1,17,129.1l-32.8,4.1c0,0-40.3-140.3-38.2-161.7c2.1-21.5,17.2-23.3,17.2-23.3
	S559.4,1213,566.9,1270.2z"/>
<path class="st14" d="M529.3,1071c9.7-3.6,14.4,83.5,15.7,119.4c17.1,1.6,47,0,54.4-0.5c3.5-0.3,11.6-3.2,15-3.7
	c3.6-0.5,6.8-0.7,8.5-0.4c0.6,0.1,18.5,7.4,20,9c1.9,2,7,7,6.1,9.2s-9.8-6-9.8-6l-4.4-2.5c5.5,5.3,15.9,12.4,14.4,14.9
	s-10.9-4.6-17.6-9.5c5.7,5.2,12.9,14.5,11.2,15.9c-1.5,1.3-9.6-9.5-18.3-12.6c-3.2-1.1-6.4,2-9,2.4c-1.9,0.3-4.7,0.9-6.6,0.4
	l-9.4-2.7c-3.2,0.3-3.3,2.2-6.5,2.9c-3.8,0.8-9.9,1.6-14.7,2.8c-27.5,6.7-36.7,9.8-45.1,9.8C507.9,1219.8,506.5,1079.6,529.3,1071z"
	/>
<path class="st5" d="M511,1152.8c-1.8-36.7-1.5-82,19-89.7c8.1-3,22.5,15.3,19.9,90.5C538.9,1154.4,522.7,1155.2,511,1152.8z"/>
<path class="st14" d="M673.2,1397.8c0,0-2.9,9.2,2.3,15.2c5.1,6.1,26.4,12,29.2,15.3s2.6,6.1,2.6,6.1l-59.7-1.6l0.7-18l2.8-13
	L673.2,1397.8z"/>
<path class="st28" d="M679.2,1416.1c0,0-15.3,6.2-22.8,2.5c-7.4-3.7-7.2-4.7-9.3-3.3c-2.1,1.4-2.9,18.3-2.9,18.3l67.2,2
	c4.7-0.1,7-3.5,3.2-6.5c-2.6-2-5.6-3.4-7.3-4.4C702,1421.7,679.2,1416.1,679.2,1416.1z"/>
<path class="st19" d="M671,1236c4.6-9.7,15.1-22.4,33.6-14.7c17.6,7.3,22.3,25.1,16.8,43.4c-5.6,18.3-42.1,125.8-43.4,140.5
	l-29.2,0.2c0,0,5.3-85.1,6.6-105.7C656.6,1279.9,663,1252.8,671,1236z"/>
<path class="st13" d="M718.4,1137h-97.7c-2.6,0-4.9,1.6-5.9,4l-30.1,73.6h-53.8c-1.5,0-2.7,1.2-2.7,2.7l0,0c0,1.5,1.2,2.7,2.7,2.7
	h153.2c4.2,0,8-2.5,9.8-6.3l30.3-67.7C726.1,1141.8,723,1137,718.4,1137z"/>
<path class="st0" d="M665.8,1179.9c-0.7,3.3-3.5,5.5-6.4,4.9s-4.7-3.7-4-7s3.5-5.5,6.4-4.9C664.7,1173.4,666.5,1176.5,665.8,1179.9z
	"/>
<g>
	<path class="st30" d="M612.6,967.5c-2.9-1-5.8-2.1-8.6-3.5c-3.2-1.5-7.3-3.3-9.9-3.7c-5.5-0.8-14.8-0.3-20,5.3
		c-6.4,7-17.9,1.3-15.6,37.9c2.6,41.4,25.6,36.9,26.2,36.2c0.6-0.7,20.5-26.5,20.5-26.5s7,15.3,7,14.7
		C612.3,1027.3,648,979.4,612.6,967.5z"/>
	<path class="st14" d="M595.2,1042.7l2,14.8c0,0,4.5,21.3-1.3,25.4c-5.7,4.1-24.4-26-24.4-26l2-37.5L595.2,1042.7z"/>
	<path class="st16" d="M572.8,1031.6c4.7,12.8,16,20.7,24,23.7l-1.7-12.5l-21.7-23.3L572.8,1031.6z"/>
	<path class="st14" d="M594,978.6c12.1-2,23,7.8,22.7,20c-0.1,5.3-0.6,11.9-1.7,19c-2.6,17.1-14.3,32.1-22,30.8
		c-7.7-1.3-27.1-16.1-23.7-40.4C571.5,992.9,581.2,980.6,594,978.6z"/>
	<path class="st14" d="M574.7,1010.8c-0.7,3.8-3.7,6.4-6.7,5.8c-3.1-0.5-5-4-4.4-7.8c0.7-3.8,3.7-6.4,6.7-5.8
		C573.4,1003.6,575.4,1007.1,574.7,1010.8z"/>
	<path class="st30" d="M570.3,1003c0,0,9.3,2.3,12.8-3.7s15.8-18.9,31.5-13.6c15.7,5.4-13.8-13-15.1-13s-16.4-0.1-16.4-0.1
		s-11.6,9.6-12.1,10.6c-0.4,1.1-3.8,12.5-3.8,12.5L570.3,1003z"/>
</g>
<path class="st0" d="M587.4,1028.1l17,3.2c0,0-1.6,6.4-9.1,5.2C586.1,1035,587.4,1028.1,587.4,1028.1z"/>
<path class="st13" d="M2056.9,1873.2H288.5c-3.5,0-6.3,2.8-6.3,6.3l0,0c0,3.5,2.8,6.3,6.3,6.3h1768.4c3.5,0,6.3-2.8,6.3-6.3l0,0
	C2063.2,1876,2060.4,1873.2,2056.9,1873.2z"/>
<path class="st14" d="M1695,1417.7c-0.9-2.6,11.5-4.6,12.2-7.2s-15.7-2.8-16.3-5.1c-1.1-4.2,17.9-0.9,17.5-2.8s-19.8-6.3-17.7-9.7
	s19.7,6.6,20.2,4.4c0.5-2.3-17.2-7.8-16.9-12.8c0.2-2.7,29.1,13.3,32.4,11.9c3.4-1.5-3.6-14-0.9-15.9s10.3,25.5,12.2,26.4
	c1.8,0.9,40.9,23.2,54.8,26.7c1.7-4.7,5.3-10.9,6.8-15.3c7.8,5.5,13.6,8.3,21.6,13.4c-5.8,14.6-14.1,30.6-18.2,32.4
	c-12.4,5.6-60.2-34.1-69.7-40.8c-9.6-6.8-15-4.6-21.5-6.7C1705.1,1414.4,1695.9,1420.3,1695,1417.7z"/>
<path class="st31" d="M1839.2,1389.9c3.7,15.2-16,49.1-16,49.1s-28.1-13.2-33-18.9c0,0,19.1-32.9,20.3-34.9
	c5.7-9.1,13.3-9.1,18.3-8.5C1832.8,1377.2,1839.2,1389.9,1839.2,1389.9z"/>
</svg>
